Coordinates
version=1
nRows=14
nColumns=36
inDegrees=yes

Units are S.I. units (second, meters, Newtons, ...)
If the header above contains a line with 'inDegrees', this indicates whether rotational values are in degrees (yes) or radians (no).

endheader
time	pelvis_tilt	pelvis_list	pelvis_rotation	pelvis_tx	pelvis_ty	pelvis_tz	hip_flexion_r	hip_adduction_r	hip_rotation_r	knee_angle_r	knee_angle_r_beta	ankle_angle_r	subtalar_angle_r	mtp_angle_r	hip_flexion_l	hip_adduction_l	hip_rotation_l	knee_angle_l	knee_angle_l_beta	ankle_angle_l	subtalar_angle_l	mtp_angle_l	lumbar_extension	lumbar_bending	lumbar_rotation	arm_flex_r	arm_add_r	arm_rot_r	elbow_flex_r	pro_sup_r	arm_flex_l	arm_add_l	arm_rot_l	elbow_flex_l	pro_sup_l
      6.65000000	     -7.41716787	      6.76810968	    -10.62603744	      0.97918904	      0.88962619	      0.36229039	     27.02969983	      0.21282381	     -2.86271462	     38.50821575	      0.67209515	     17.11979915	      5.43394192	     -7.49999987	     49.00984313	     -4.50692073	      2.23061695	     29.06322858	      0.50724903	      9.10508322	     -3.99144286	     -7.49999987	    -10.56079904	      8.86066740	     -5.78981533	     52.07544678	     -2.39666978	     72.51536865	    117.66145462	     98.75559556	     58.99919000	     -3.93972294	     66.08112297	    119.68235791	    108.21295817
      6.66666670	     -7.78476712	      6.45040547	    -10.40028087	      0.97750063	      0.87905421	      0.36153692	     28.41940350	      0.54145996	     -3.03860400	     40.89812487	      0.71380694	     18.83042012	      6.25975329	     -7.49999987	     51.18333812	     -4.96757859	      2.58318464	     30.40167786	      0.53060938	      8.83428631	     -3.60206208	     -7.49999987	    -10.46187573	      9.40291843	     -6.10321497	     52.20898310	     -2.19995110	     72.14525774	    117.09202172	     99.47704437	     58.87933697	     -4.19660013	     65.11536940	    120.14141870	    108.43944956
      6.68333330	     -8.29682232	      6.07887677	    -10.35559057	      0.97355702	      0.87278802	      0.35893576	     30.24102158	      0.93722579	     -3.17423891	     43.59550263	      0.76088506	     20.37924612	      7.10329461	     -7.49999987	     53.54345041	     -5.51709263	      3.05139841	     31.78585783	      0.55476787	      8.55831499	     -3.09923317	     -7.49999987	    -10.42235304	     10.00891836	     -5.97724451	     53.02061452	     -2.42373505	     72.02310020	    117.10105272	     99.18141874	     59.33409799	     -4.27547688	     64.38880660	    120.33680958	    108.61446994
      6.70000000	     -8.81737372	      5.76212962	    -10.36810203	      0.96830280	      0.86685653	      0.35615214	     32.21241389	      1.27300831	     -3.28957809	     46.41024864	      0.81001165	     21.64826276	      7.85987796	     -7.49999987	     55.90162799	     -5.87280691	      3.65228812	     33.10783045	      0.57784065	      8.28596983	     -2.62721251	     -7.49999987	    -10.53029570	     10.68134106	     -5.87624988	     54.19298473	     -2.53230689	     72.28753385	    116.51302914	     98.01641911	     60.02353818	     -4.63171486	     64.33834607	    120.05761573	    107.95910945
      6.71666670	     -9.05765851	      5.50266517	    -10.42987574	      0.97352646	      0.86506102	      0.35416066	     33.40800429	      1.51398524	     -3.25779112	     48.57259859	      0.84775177	     22.51249380	      8.40604259	     -7.49999987	     57.37589593	     -6.09062329	      4.23096203	     33.73186355	      0.58873208	      7.99968255	     -2.40296022	     -7.49999987	    -10.59449338	     11.27897829	     -5.80848873	     54.25348547	     -3.09017934	     72.61419188	    116.00336473	     98.22214503	     59.86619559	     -4.42394333	     64.52866078	    119.33962870	    108.13918871
      6.73333330	     -9.23230086	      5.23575749	    -10.43456780	      0.97359596	      0.86031064	      0.35466348	     34.24265127	      1.73764940	     -3.30164034	     50.24999932	      0.87702794	     23.18679906	      8.64348304	     -7.49999987	     58.46205242	     -6.31277829	      4.87393810	     34.07511649	      0.59472298	      7.37384455	     -2.44070366	     -7.49999987	    -10.77439873	     11.86027600	     -5.52958692	     53.93351296	     -3.88871401	     72.80239391	    115.64457966	     98.50668149	     59.15925467	     -4.09954308	     64.34398615	    119.03913301	    109.32489242
      6.75000000	     -9.16480898	      4.96954206	    -10.38034979	      0.97389016	      0.85794204	      0.35463755	     35.03114902	      1.88840169	     -3.35944839	     52.11656894	      0.90960572	     23.39373079	      8.59793461	     -7.49999987	     59.22689899	     -6.46440822	      5.43735486	     34.40491644	      0.60047907	      6.86986629	     -2.20156643	     -7.49999987	    -11.54207600	     12.36604578	     -5.48062718	     53.98455588	     -4.33570575	     72.84348929	    115.55291072	     98.59003889	     58.94336894	     -4.17789451	     64.38970953	    119.17283412	    109.32793877
      6.76666670	     -9.68416834	      4.87174605	    -10.32100006	      0.97346120	      0.85163572	      0.35471771	     36.39072193	      1.93891663	     -3.38274674	     53.97334114	      0.94201251	     23.76890768	      8.80405596	     -7.49999987	     60.49420407	     -6.57653292	      6.07429607	     34.63048126	      0.60441592	      6.24643681	     -2.35987632	     -7.49999987	    -11.33194114	     12.93000200	     -5.51960733	     54.13735936	     -3.93774419	     72.98922533	    114.84093863	     99.03234696	     58.53662335	     -4.42294808	     64.32660017	    119.60442744	    109.64246229
      6.78333330	    -10.20791051	      4.78510600	    -10.33498205	      0.96976722	      0.84060577	      0.35262505	     38.12348936	      1.97020546	     -3.53469589	     56.26228036	      0.98196204	     24.47499128	      9.04824533	     -7.49999987	     62.05973512	     -6.66262268	      6.78272899	     35.38727091	      0.61762439	      5.89508673	     -2.47375035	     -7.49999987	    -11.20594168	     13.36706630	     -5.37051505	     54.95532658	     -3.67936484	     73.18703159	    114.86030905	     98.71322840	     59.04468495	     -4.52308224	     64.24070231	    119.93127291	    109.32328131
      6.80000000	    -10.51238849	      4.68270167	    -10.31059507	      0.96893298	      0.83704755	      0.35249930	     39.51522508	      2.04739545	     -3.57287097	     58.33841081	      1.01819735	     25.29120654	      9.32924429	     -7.49999987	     63.35525620	     -6.65805140	      7.51710580	     36.10450681	      0.63014252	      5.49388317	     -2.81906652	     -7.49999987	    -11.46309059	     13.72999730	     -5.06522930	     55.13191239	     -3.88672395	     73.36751043	    114.13069249	     98.58545167	     58.78036543	     -4.52788077	     64.12699512	    119.62312587	    109.38721764
      6.81666670	    -10.72384521	      4.60138579	    -10.30271929	      0.96558389	      0.83133079	      0.35025892	     40.72931980	      2.13799922	     -3.54539947	     60.09203486	      1.04880386	     26.21691524	      9.42855458	     -7.49999987	     64.65892520	     -6.72767168	      8.06163615	     36.88806012	      0.64381810	      5.47395854	     -3.17778699	     -7.49999987	    -12.08932128	     14.07187585	     -4.75565510	     55.61465869	     -4.31679898	     73.20741476	    114.57931941	     97.62751715	     59.02310635	     -4.47856609	     64.12438121	    120.04620363	    108.82005938
      6.83333330	    -11.15910071	      4.63601215	    -10.27099316	      0.96499130	      0.82811230	      0.35038286	     42.08288625	      2.23451831	     -3.43443793	     61.45674866	      1.07262261	     26.74596292	      9.05941901	     -7.49999987	     65.98780657	     -6.65673806	      8.49226636	     37.24265664	      0.65000698	      5.31722830	     -3.63840816	     -7.49999987	    -12.30595723	     14.41624491	     -4.42467637	     56.10817707	     -4.25645077	     73.29239513	    114.70153645	     98.52672300	     59.11591853	     -4.55266918	     63.95847903	    119.87674194	    110.17887589
      6.85000000	    -11.27618343	      4.61447377	    -10.30258821	      0.96586872	      0.82600187	      0.35027237	     42.87387933	      2.31264577	     -3.40529706	     62.48920968	      1.09064246	     27.35895803	      8.77595195	     -7.49999987	     66.70323560	     -6.53060908	      8.86485649	     37.54085186	      0.65521147	      5.22560496	     -3.79524519	     -7.49999987	    -12.91431296	     14.74106695	     -4.04960639	     56.19826093	     -4.17975674	     73.46564026	    114.62989337	     98.59136341	     59.07885587	     -4.38148121	     64.15895221	    119.62586138	    110.19027314
      6.86666670	    -11.78625738	      4.68760630	    -10.24471643	      0.96531772	      0.82034305	      0.35053100	     44.02727836	      2.44943122	     -3.29872802	     63.34224291	      1.10553069	     27.78972769	      8.28045110	     -7.49999987	     67.67116922	     -6.37811683	      8.96496367	     37.62328707	      0.65665023	      4.71376313	     -4.02621658	     -7.49999987	    -12.95172450	     14.71675439	     -3.47067367	     56.06424066	     -4.67581617	     73.72219176	    114.98257390	     98.47669625	     59.21589091	     -4.10021713	     64.78553359	    118.42465742	    110.54181728
